inDegrees=no
num_controls=7
num_derivatives=13
num_iterations=163
num_multipliers=7
num_parameters=0
num_slacks=7
num_states=26
objective=5.071761
objective_accelerations=0.334316
objective_balance=0.032315
objective_effort=0.165876
objective_height=4.452178
objective_ligament=0.087076
solver_duration=1811.727266
status=Solve_Succeeded
success=true
DataType=double
version=3
OpenSimVersion=4.4-2022-07-23-0e9fedc
endheader
time	/jointset/ground_pelvis/pelvis_tilt/value	/jointset/ground_pelvis/pelvis_tx/value	/jointset/ground_pelvis/pelvis_ty/value	/jointset/hip_l/hip_flexion_l/value	/jointset/hip_l/hip_adduction_l/value	/jointset/hip_l/hip_rotation_l/value	/jointset/back/lumbar_extension/value	/jointset/patellofemoral_l/patellar_flexion_l/value	/jointset/knee_l/knee_flexion_l/value	/jointset/knee_l/knee_adduction_l/value	/jointset/knee_l/knee_rotation_l/value	/jointset/ankle_l/ankle_angle_l/value	/jointset/subtalar_l/subtalar_angle_l/value	/jointset/ground_pelvis/pelvis_tilt/speed	/jointset/ground_pelvis/pelvis_tx/speed	/jointset/ground_pelvis/pelvis_ty/speed	/jointset/hip_l/hip_flexion_l/speed	/jointset/hip_l/hip_adduction_l/speed	/jointset/hip_l/hip_rotation_l/speed	/jointset/back/lumbar_extension/speed	/jointset/patellofemoral_l/patellar_flexion_l/speed	/jointset/knee_l/knee_flexion_l/speed	/jointset/knee_l/knee_adduction_l/speed	/jointset/knee_l/knee_rotation_l/speed	/jointset/ankle_l/ankle_angle_l/speed	/jointset/subtalar_l/subtalar_angle_l/speed	/forceset/tau_hip_flexion_l	/forceset/tau_hip_adduction_l	/forceset/tau_hip_rotation_l	/forceset/tau_knee_flexion_l	/forceset/tau_ankle_angle_l	/forceset/tau_subtalar_angle_l	/forceset/tau_lumbar_extension	lambda_cid13_p0	lambda_cid13_p1	lambda_cid13_p2	lambda_cid13_p3	lambda_cid13_p4	lambda_cid13_p5	lambda_cid14_p0	/jointset/ground_pelvis/pelvis_tilt/accel	/jointset/ground_pelvis/pelvis_tx/accel	/jointset/ground_pelvis/pelvis_ty/accel	/jointset/hip_l/hip_flexion_l/accel	/jointset/hip_l/hip_adduction_l/accel	/jointset/hip_l/hip_rotation_l/accel	/jointset/back/lumbar_extension/accel	/jointset/patellofemoral_l/patellar_flexion_l/accel	/jointset/knee_l/knee_flexion_l/accel	/jointset/knee_l/knee_adduction_l/accel	/jointset/knee_l/knee_rotation_l/accel	/jointset/ankle_l/ankle_angle_l/accel	/jointset/subtalar_l/subtalar_angle_l/accel	gamma_cid13_p0	gamma_cid13_p1	gamma_cid13_p2	gamma_cid13_p3	gamma_cid13_p4	gamma_cid13_p5	gamma_cid14_p0
1.5	-0.1454196391228122	0.09244053549212364	0.8261447572346197	0.5953511542014515	-0.4394868582824457	-0.3088010798897653	-0.1935068425901922	0.6509920634306889	0.6509920634306702	-0.1615206387227517	-0.1682999372025714	0.235245075114692	0.04072489713182695	0.08633152122449306	0.03751901701248649	0.2727608606837801	-1.084944227376959	0.2600008203582981	-0.6351118343848092	0.3522430212088695	-1.592890804266659	-1.592890804266703	-0.02297213337127334	0.04292749840334822	-0.7038290573958633	-0.101021813524231	-0.06301942736446885	0.04167313297492044	-0.01081806242338115	-0.2025808237252862	-0.04749683133642103	0.02313491414360098	0.09096545591013763	-48.17033597404963	-7.100878416963407	7.064386838573673	4.054588940221665	-532.5618369149164	-68.96006458551815	-32.6526583252287	0.02764812885544145	0.118835120873682	-0.2831415677808767	-0.4559345896380786	0.5366985976313605	-0.1230203260793802	0.763519762243328	-1.128235472617825	-1.12823547261782	-0.08331221281726188	0.13949759335419	-0.5053105342082278	0.398673513521983	5.745568909942656e-08	8.305057363501624e-07	-1.033385600796411e-07	1.766946178362397e-07	-3.302732087351348e-09	4.398481570133202e-07	8.570586294506412e-08
1.51	-0.1445551061047296	0.09282161852418622	0.828857595821516	0.5844805524309441	-0.4368605196124397	-0.3151585127154289	-0.1899466249677925	0.6350091618017666	0.6350091618017772	-0.1617545551945022	-0.1678650385240545	0.2281824471178178	0.03973440601933732	0.08657076279424369	0.03869124184130519	0.2697513139938224	-1.089016862990229	0.2652421957201044	-0.6362837142838931	0.3597451926070236	-1.603462055556779	-1.603462055556804	-0.02381054361766056	0.0440431820216097	-0.7085961473160121	-0.09705931807965229	-0.06072138416748493	0.039999421849675	-0.01083830161913887	-0.1999752475896076	-0.04474820916042602	0.02269976339894378	0.0887875395630088	-47.22151405714737	-7.110411621827389	7.102900493156973	3.743034340666351	-530.7149640253227	-68.99279593034908	-33.33538654151926	0.02139396655347943	0.1155025762283011	-0.31819676148577	-0.3590613590774753	0.5140656148240481	-0.1005526101708151	0.7352692289982249	-0.9874665763548186	-0.9874665763519865	-0.08388151305460176	0.09623791636180873	-0.447318717203217	0.3974660665176248	4.70437329543734e-08	8.6783012265931e-07	-6.534164658740191e-08	1.872784987801589e-07	-1.477383742188735e-08	4.320531807082158e-07	8.363392487520765e-08
1.52	-0.1436883143118467	0.09321424108700542	0.8315386718331359	0.5735739976419212	-0.4341825254669424	-0.3215249204977528	-0.1863130449513323	0.6189273683361126	0.6189273683361542	-0.1619968109852087	-0.1674192561753028	0.2210751661224848	0.03878402556261175	0.08678327618474198	0.0398269231638141	0.2664083456285613	-1.092134831079736	0.2703319154566631	-0.6369068257168949	0.3669155000210501	-1.612669171612728	-1.612669171612735	-0.02463999716425468	0.04510423245185893	-0.7127596570875623	-0.09299968237140113	-0.05842334097051217	0.03832571072442537	-0.01085854081484788	-0.1973696714539376	-0.04199958698443334	0.02226461265427879	0.08660962321587262	-46.28024922537254	-7.119209914935129	7.141969578971676	3.430192678275502	-528.9935122763284	-69.05579009289673	-34.00457828072216	0.0223024930049672	0.1115264196117203	-0.3498259028415705	-0.2650010848853159	0.5063674725818156	-0.01326663286298982	0.6971469654177866	-0.8554084257837852	-0.855408425783788	-0.08152087285863696	0.1285709557517371	-0.3845945044885513	0.4181015662564747	3.993849514457621e-08	8.993914215368333e-07	-4.410935232173626e-08	1.953880043514749e-07	-2.198230107820142e-08	4.296591124714667e-07	8.330663222857374e-08
1.53	-0.1428195606394002	0.0936180258219441	0.8341846843161644	0.5626410964276216	-0.4314544474302525	-0.3278949023396833	-0.1826094560845233	0.60276043900665	0.6027604390066414	-0.1622472972312474	-0.1669632302412284	0.2139293173661726	0.03787469325045113	0.08696209219927344	0.0409223720561402	0.2627423360578344	-1.094281541233577	0.2752537693135513	-0.6369998130280409	0.3737409096027773	-1.620478541970525	-1.620478541970543	-0.02545392493645515	0.04608955362439526	-0.7163045120789504	-0.08885292105041671	-0.05604692404362292	0.03652961368850088	-0.01091032424123436	-0.194810497995091	-0.0391095267120326	0.02179328701311473	0.08436941241531025	-45.29422723400371	-7.11784600590793	7.176804318548445	3.097657205243386	-527.254076811642	-69.11597098908484	-34.65698067964714	0.01484323329285585	0.1074471193656689	-0.3827659413108851	-0.1649512305231676	0.4805137836031333	0.006213378631802226	0.6660333938579401	-0.7079956243838075	-0.7079956243855103	-0.08068922739347019	0.08179323624394445	-0.3235633583004131	0.4148983883315894	3.634664556598847e-08	9.248294400182559e-07	-4.068946598430483e-08	2.008684860894002e-07	-2.466170795140474e-08	4.330035090573453e-07	8.483302534411379e-08
